<?xml version="1.0" encoding="UTF-8"?>
<svg version="1.1" viewBox="0 0 2048 1152" width="1280" height="1280" xmlns="http://www.w3.org/2000/svg">
<path transform="translate(0)" d="m0 0h2048v1152h-2048z" fill="#232222"/>
<path transform="translate(1472,345)" d="m0 0h446l15 1v460h-461z" fill="#FEDF24"/>
<path transform="translate(585,480)" d="m0 0h10l14 2 14 5 10 6 11 9 9 12 8 15 6 20 3 19v23l-3 20-4 15-9 19-9 12-8 8-14 9-13 5-12 2h-16l-17-3-13-5-10-6-11-9-8-10-6-10-6-16-4-20-1-10v-20l3-21 5-17 8-16 9-12 8-8 14-9 11-5 12-3z" fill="#242323"/>
<path transform="translate(1820,554)" d="m0 0 17 1 12 3 16 8 10 9 9 13-1 3-18 11-14 9-4-4-5-7-6-4-6-2h-14l-8 4-4 6-1 3v8l3 8 7 6 19 9 18 8 17 9 10 8 9 9 6 10 4 13 1 6v18l-3 12-6 12-11 12-13 8-15 5-10 2h-28l-18-4-12-5-12-7-12-11-8-11-3-6 9-6 23-13 4-1 8 10 7 7 10 5 7 2 13 1 11-2 8-4 5-6 1-3v-12l-5-8-11-7-24-11-21-10-12-9-8-8-8-14-4-16v-17l4-15 7-12 10-10 12-7 13-4z" fill="#040303"/>
<path transform="translate(895,480)" d="m0 0 18 1 15 4 14 7 10 8 8 8 8 13 5 11 4 13 3 19v10h-165l1-14 4-18 7-17 9-14 9-10 8-7 12-7 15-5z" fill="#242323"/>
<path transform="translate(1680,557)" d="m0 0h43v157l-3 16-6 14-8 10-11 8-11 5-15 3h-24l-15-4-14-7-11-9-8-11-4-7v-2l23-14 10-6 4 1 7 11 7 6 6 2h14l8-4 4-5 2-8 1-155z" fill="#040303"/>
<path transform="translate(131,396)" d="m0 0h159l18 1v8h-183l1 125h171l1 8-1 1h-172l1 136 184 1h2l20-26 14-18 40-52 1-5-9-11-14-19-16-21-9-12-16-21-9-12v-2h10l14 18 10 14 16 21 13 18 16 21 2 1 2-4 15-20 14-18 9-12 16-21 13-17 1-1h9l-2 4-14 19-14 18-9 12-16 21-12 16-7 9 2 4 13 17 14 18 13 17 11 14 14 18 10 13 4 5v2h-10l-14-18-20-26-14-18-10-13-14-18-4-5v-2l-5 5-9 11-13 17-14 18-13 17-20 26-5 6h-199v-287z" fill="#FEFCED"/>
<path transform="translate(584,472)" d="m0 0h12l14 2 15 5 11 6 10 8 7 7 9 13 8 16 5 17 3 18v31l-3 18-4 15-7 16-7 11-10 12-10 8-12 7-16 5-15 2-20-1-17-4-16-8-9-7-9-9-9-14-6-14-1-3-1 126h-8v-278h8l1 55 6-14 10-15 14-14 11-7 11-5 16-4zm1 8-14 2-12 4-13 7-10 8-7 7-9 14-6 12-5 17-3 21v20l3 22 5 17 7 14 7 9 5 5 10 9 16 8 15 4 8 1h16l15-3 12-5 13-9 9-9 9-14 7-15 5-19 2-16v-23l-3-19-6-20-8-15-10-13-13-10-14-7-12-3-9-1z" fill="#FEFCEF"/>
<path transform="translate(892,472)" d="m0 0h12l15 2 14 4 13 7 9 7 7 6 9 12 8 15 5 15 3 14 1 8v20l-34 1h-138v10l3 22 6 20 8 15 9 11 12 9 13 6 13 3 8 1h17l18-3 16-6 12-8 6-5 9-12 7-16 4-17h9l-3 16-5 13-6 11-9 11-12 10-15 8-17 5-17 2h-12l-17-2-16-5-11-6-11-9-10-12-8-15-6-18-4-24v-34l3-17 6-18 8-15 9-12 12-12 14-9 16-6zm3 8-15 2-15 5-13 8-10 9-7 8-10 17-6 17-3 14-1 14h165v-10l-3-19-6-18-7-13-7-9-8-8-14-9-13-5-9-2z" fill="#FEFBE5"/>
<path transform="translate(1267,472)" d="m0 0h15l17 2 16 5 10 5 9 7 6 7 6 12 3 10 1 7v11l-1 1h-6l-1-1-3-19-5-12-6-8-8-7-12-6-11-3-17-2h-11l-16 2-15 5-13 9-7 10-3 9-1 5v10l3 12 6 8 7 6 14 6 73 20 14 6 11 8 7 8 5 10 2 10v13l-3 13-4 8-8 10-10 8-13 6-15 4-18 2-23-1-16-3-16-6-11-7-8-8-7-11-5-15-2-12v-13h8l3 22 4 12 6 10 5 6 14 9 15 5 19 3h18l18-3 13-5 10-6 7-6 7-11 2-6v-21l-4-10-7-8-9-7-14-6-26-7-35-9-18-6-13-7-7-7-6-12-2-9v-17l4-13 7-10 7-7 11-7 14-5 9-2z" fill="#FEFBE7"/>
<path transform="translate(1081,472)" d="m0 0h15l21 3 16 6 11 7 8 8 6 10 4 12 2 20-7 1-2-1-2-17-4-11-7-11-10-8-11-5-11-3-17-2h-10l-17 2-12 4-12 7-7 7-6 12-1 4v18l4 11 7 8 11 6 21 7 53 14 16 6 12 7 9 9 5 9 3 10v19l-4 13-6 10-9 9-14 8-15 5-11 2-20 1-21-2-19-5-15-8-9-8-9-14-5-16-2-14v-9h8l4 25 5 12 6 9 9 8 16 8 17 4 10 1h17l18-3 16-6 10-7 8-9 4-8 2-8v-13l-2-9-6-10-8-7-16-8-16-5-48-12-20-7-12-7-7-8-4-8-3-14v-11l3-12 5-10 9-10 11-7 12-5 13-3z" fill="#FEFBE8"/>
<path transform="translate(795,472)" d="m0 0h9l1 1v7l-21 2-12 3-14 7-10 8-8 9-9 16-5 17-2 11-1 131h-9v-206l1-1h7l1 1 1 45 7-16 10-13 11-9 14-7 13-4z" fill="#FEF9D7"/>
</svg>
