<?xml version="1.0" encoding="UTF-8"?>
<svg version="1.1" viewBox="0 0 1440 1440" width="1280" height="1280" xmlns="http://www.w3.org/2000/svg">
<path transform="translate(0)" d="m0 0h1440v1440h-1440z" fill="#FBFBFB"/>
<path transform="translate(940,1120)" d="m0 0h22l21 3 14 5 14 9 7 7 7 12 5 16 1 6v167h-36l-1-1-2-20-5 2-13 9-15 8-15 5-17 2-19-1-11-2-14-6-11-8-8-11-4-9-3-15v-17l3-16 5-12 8-10 7-7 13-8 13-6 13-4 15-3 22-2 28-1v-29l-3-10-4-6-8-7-12-4-14-2-17 1-25 4-24 7h-3l-5-22-1-5 5-3 19-7 24-6z" fill="#CF3236"/>
<path transform="translate(530,1120)" d="m0 0h19l25 4 14 6 11 7 7 8 6 10 4 11 2 12 1 21-1 145-1 1h-34l-2-7-2-16-14 11-19 10-16 5-5 1h-31l-13-3-14-7-10-9-8-13-3-9-2-12v-14l3-15 5-12 7-11 7-7 14-9 11-5 16-5 14-3 23-2 28-1v-19l-2-16-5-10-8-7-11-4-5-1h-28l-20 3-26 7-5 1-2-7-4-16v-5l18-7 24-7 21-3z" fill="#CF3236"/>
<path transform="translate(789,21)" d="m0 0 4 2 9 14 6 13 4 14 3 16v24l-5 22-6 18-10 21-11 18-10 13-11 14-13 14-7 8-13 12-7 7-11 9-12 10-14 11-10 9-8 7-11 11-7 8-12 16-9 15-6 14-4 15-1 5v25l5 21 9 20 9 16 11 17 28 40 12 21 1 4h-3l-5-5-17-16-15-14-19-19-7-8-11-12-9-11-8-10-14-21-9-17-7-21-2-11v-20l4-15 5-11 7-12 13-16 14-15 12-12 11-9 10-9 9-7 14-11 11-9 18-14 12-10 11-9 15-14 8-7 2-3h2l2-4 7-7 13-17 13-22 5-11 5-15 3-13 2-19v-12l-2-19z" fill="#CF3236"/>
<path transform="translate(645,1124)" d="m0 0h49l3 8 10 33 10 31 8 26 13 43 7 30 1 3 15-45 8-28 12-51 5-27 3-22 1-1h47l-1 11-8 38-10 39-9 31-11 33-10 27-10 24-8 17-2 1h-55l-2-2-10-34-10-32-8-27-9-29-8-26-11-35-9-31z" fill="#CF3236"/>
<path transform="translate(451,835)" d="m0 0h29l8 2 1 2-13 2-18 3-14 4-18 6-19 9-6 5-3 5 2 6 10 6 23 7 17 4 32 5 35 4 34 3 34 2 55 1h35l45-1 76-4 62-6 37-5 35-6 24-6 18-6 11-6 8-7 2-6-1-7-2-6 6 2 7 7 3 6-1 7-9 10-10 7-21 10-25 9-21 6-36 8-40 7-27 4-38 4-43 3-19 1-34 1h-81l-31-1-58-4-59-6-57-8-27-5-16-5-10-6-5-6-1-2v-8l6-8 10-9 14-8 19-9 27-9 25-6z" fill="#2A72BF"/>
<path transform="translate(364,1046)" d="m0 0h48v267l-1 18-4 25-5 15-6 11-9 11-11 11-13 9-10 6-11 5h-5l-13-15-8-9 1-3 16-10 12-11 8-11 6-16 3-18 1-25z" fill="#CF3236"/>
<path transform="translate(902,217)" d="m0 0 4 1-10 7-27 16-42 28-14 10-13 11-10 8-20 20-9 13-8 15-3 10v18l4 14 8 16 10 16 11 15 10 15 8 17 2 8v20l-4 14-8 16-11 15-6 7-11 9-12 10-13 9-6 3-2-1 10-12 6-10 6-14 2-10v-15l-3-12-7-14-6-8v-2h-2l-11-14-12-18-9-17-7-21-2-9v-28l3-13 4-12 8-15 12-16 9-10 10-10 13-10 18-13 19-11 25-13 29-13 36-13z" fill="#CF3236"/>
<path transform="translate(560,766)" d="m0 0 3 1-6 6-1 6 1 5 5 2 12 4 36 5 26 2 27 1h17l34-2 33-4 37-6 8-1 23 12 22 11 6 2v2l-16 6-34 11-29 7-32 5-26 3-29 1h-15l-29-2-33-4-33-8-21-8-14-8-8-7-5-10 2-9 7-8 11-7 14-6z" fill="#2A72BF"/>
<path transform="translate(567,549)" d="m0 0h13l-2 2-21 6-24 7-26 10-15 8-7 6-1 5 5 5 9 4 30 5 25 2h109l59-3 51-4 50-6 42-6 25-5h6l-4 4-42 21-25 6-33 6-48 6-43 4-41 2-37 1h-32l-34-1-35-2-44-5-28-5-20-6-9-6-6-7 1-6 8-7 16-8 24-10 19-7 30-8 27-5z" fill="#2A72BF"/>
<path transform="translate(538,660)" d="m0 0h2l-2 4-8 11v6l4 6 4 3 15 4 25 3 18 2 15 1 31 1h33l40-2 45-5 61-10 5 3 12 9 15 8 8 4-2 2-47 11-37 7-38 5-32 3-38 2h-30l-44-3-35-5-22-5-24-8-10-6-8-7-3-5v-8l4-7 8-7 14-8 18-8z" fill="#2A72BF"/>
<path transform="translate(1047,895)" d="m0 0h1l-1 7-7 11-14 14-14 9-21 10-30 10-24 6-42 8-44 6-45 4-59 3h-98l-70-4-43-5-36-7-26-7-4-3v-2l23 3 35 4 28 2 51 3 32 1h21l57-1 41-2 39-3 46-5 42-6 37-7 30-7 25-7 31-11 19-9 10-7z" fill="#2A72BF"/>
<path transform="translate(961,540)" d="m0 0h12l15 2 18 6 11 6 11 9 10 13 7 14 3 11v15l-4 16-8 16-8 11-9 10-12 11-21 14-23 12-23 10-22 8-21 6-1-2 4-4 17-9 16-10 19-13 10-8 13-12 9-9 11-15 8-16 3-9 1-5v-19l-3-10-6-11-10-11-14-8-18-6h-17l-16 4-6 1 2-4 12-7 16-5z" fill="#2A72BF"/>
<path transform="translate(542,1242)" d="m0 0h30l1 1v49l-2 5-15 10-15 7-9 2h-18l-9-3-8-7-7-14v-21l4-9 5-7 9-6 15-5z" fill="#FBFBFB"/>
<path transform="translate(955,1242)" d="m0 0h29l1 1v52l-10 8-17 9-8 3-6 1h-18l-10-4-8-8-4-8-2-8v-13l2-8 6-10 8-6 14-6 11-2z" fill="#FBFBFB"/>
<path transform="translate(1052,1124)" d="m0 0 6 1 6 12v4l-3 1-3-8-1-1-1 8-4 1-1-17z" fill="#CF3236"/>
<path transform="translate(1036,1124)" d="m0 0h11l-2 5-1 13h-4l-1-14-4-2z" fill="#CF3236"/>
<path transform="translate(1067,1124)" d="m0 0 5 1v16l-4 1-2-10-1-1v-6z" fill="#CF3236"/>
</svg>
